<svg width="102" height="34" viewBox="0 0 102 34" fill="none" xmlns="http://www.w3.org/2000/svg">
<rect x="0.892151" y="0.357971" width="101" height="33" rx="16.5" fill="#EB5757"/>
<path d="M20.5601 21.8579H21.7027V17.8907H25.7589V16.875H21.7027V13.7266H26.1207V12.6983H20.5601V21.8579ZM29.2945 21.9785C29.6034 21.9785 29.8869 21.9362 30.1451 21.8516C30.4032 21.7627 30.6339 21.6337 30.837 21.4644C31.0443 21.2951 31.22 21.0899 31.3638 20.8487H31.4654V21.8579H32.5699V17.1734C32.5699 16.6994 32.4683 16.2932 32.2652 15.9546C32.0663 15.6118 31.7722 15.3495 31.3829 15.1675C30.9978 14.9855 30.5259 14.8946 29.9673 14.8946C29.4807 14.8946 29.0469 14.9707 28.6661 15.1231C28.2852 15.2712 27.9742 15.4807 27.733 15.7515C27.496 16.0181 27.3479 16.3312 27.2886 16.6909L27.2823 16.729H28.3868L28.3931 16.71C28.482 16.4434 28.6576 16.2381 28.92 16.0943C29.1824 15.9462 29.5188 15.8721 29.9293 15.8721C30.4413 15.8721 30.8243 15.9842 31.0782 16.2085C31.3363 16.4286 31.4654 16.7502 31.4654 17.1734V19.3062C31.4654 19.632 31.3808 19.924 31.2115 20.1822C31.0464 20.4403 30.8179 20.6455 30.5259 20.7979C30.2339 20.946 29.8996 21.0201 29.523 21.0201C29.1252 21.0201 28.7951 20.9248 28.5328 20.7344C28.2704 20.5397 28.1392 20.2689 28.1392 19.9219V19.9092C28.1392 19.5707 28.2577 19.3083 28.4947 19.1221C28.7359 18.9359 29.1168 18.828 29.6373 18.7984L32.0176 18.646V17.7637L29.504 17.916C28.7084 17.9626 28.0927 18.1594 27.6568 18.5064C27.2252 18.8492 27.0093 19.3252 27.0093 19.9346V19.9473C27.0093 20.362 27.1088 20.7217 27.3077 21.0264C27.5108 21.3311 27.7838 21.5659 28.1265 21.731C28.4735 21.896 28.8629 21.9785 29.2945 21.9785ZM36.2706 21.8579H37.3878L39.9205 15.0152H38.7525L36.8799 20.6519H36.7784L34.9058 15.0152H33.7379L36.2706 21.8579ZM43.9385 21.9785C44.5902 21.9785 45.1509 21.8368 45.6207 21.5533C46.0904 21.2655 46.4522 20.8571 46.7061 20.3282C46.9643 19.7992 47.0933 19.1708 47.0933 18.4429V18.4302C47.0933 17.6981 46.9643 17.0676 46.7061 16.5386C46.4522 16.0096 46.0904 15.6034 45.6207 15.3199C45.1509 15.0363 44.5902 14.8946 43.9385 14.8946C43.2911 14.8946 42.7304 15.0363 42.2564 15.3199C41.7867 15.6034 41.4227 16.0096 41.1646 16.5386C40.9107 17.0676 40.7838 17.6981 40.7838 18.4302V18.4429C40.7838 19.1708 40.9107 19.7992 41.1646 20.3282C41.4227 20.8571 41.7867 21.2655 42.2564 21.5533C42.7304 21.8368 43.2911 21.9785 43.9385 21.9785ZM43.9385 21.001C43.5069 21.001 43.1408 20.8994 42.8404 20.6963C42.5399 20.4932 42.3093 20.2012 42.1485 19.8203C41.9919 19.4395 41.9136 18.9803 41.9136 18.4429V18.4302C41.9136 17.8885 41.9919 17.4273 42.1485 17.0464C42.3093 16.6656 42.5399 16.3757 42.8404 16.1768C43.1408 15.9737 43.5069 15.8721 43.9385 15.8721C44.3702 15.8721 44.7362 15.9737 45.0367 16.1768C45.3371 16.3757 45.5657 16.6656 45.7222 17.0464C45.883 17.4273 45.9634 17.8885 45.9634 18.4302V18.4429C45.9634 18.9803 45.883 19.4395 45.7222 19.8203C45.5657 20.2012 45.3371 20.4932 45.0367 20.6963C44.7362 20.8994 44.3702 21.001 43.9385 21.001ZM51.0987 21.9785C51.6023 21.9785 52.0233 21.8791 52.3619 21.6802C52.7047 21.4813 52.9607 21.1999 53.1299 20.836H53.2315V21.8579H54.336V15.0152H53.2315V19.065C53.2315 19.4628 53.1617 19.8076 53.022 20.0996C52.8824 20.3874 52.675 20.6096 52.4 20.7661C52.1249 20.9227 51.7864 21.001 51.3843 21.001C50.8384 21.001 50.4449 20.8508 50.2037 20.5503C49.9667 20.2499 49.8482 19.7928 49.8482 19.1792V15.0152H48.7437V19.4458C48.7437 19.9833 48.8305 20.4424 49.004 20.8233C49.1817 21.1999 49.4462 21.4877 49.7974 21.6866C50.1487 21.8812 50.5824 21.9785 51.0987 21.9785ZM56.399 21.8579H57.5035V17.6177C57.5035 17.2834 57.5797 16.9914 57.732 16.7417C57.8886 16.4921 58.1023 16.2974 58.3731 16.1577C58.6439 16.0181 58.955 15.9483 59.3062 15.9483C59.4289 15.9483 59.5432 15.9546 59.649 15.9673C59.759 15.9758 59.8712 15.9906 59.9854 16.0117V14.939C59.9304 14.9305 59.85 14.9221 59.7442 14.9136C59.6426 14.9009 59.539 14.8946 59.4332 14.8946C58.9719 14.8946 58.5847 14.994 58.2715 15.1929C57.9584 15.3918 57.7362 15.6711 57.605 16.0308H57.5035V15.0152H56.399V21.8579ZM61.3755 21.8579H62.48V15.0152H61.3755V21.8579ZM61.9341 13.6949C62.1457 13.6949 62.3256 13.6208 62.4737 13.4727C62.6218 13.3203 62.6959 13.1405 62.6959 12.9331C62.6959 12.7215 62.6218 12.5417 62.4737 12.3936C62.3256 12.2455 62.1457 12.1714 61.9341 12.1714C61.7268 12.1714 61.5469 12.2455 61.3946 12.3936C61.2465 12.5417 61.1724 12.7215 61.1724 12.9331C61.1724 13.1405 61.2465 13.3203 61.3946 13.4727C61.5469 13.6208 61.7268 13.6949 61.9341 13.6949ZM66.9932 21.9087C67.1033 21.9087 67.2112 21.9024 67.317 21.8897C67.4227 21.877 67.5285 21.8622 67.6343 21.8452V20.9058C67.5328 20.9143 67.446 20.9206 67.3741 20.9248C67.3064 20.9291 67.2239 20.9312 67.1265 20.9312C66.7711 20.9312 66.5172 20.8444 66.3648 20.6709C66.2125 20.4932 66.1363 20.2033 66.1363 19.8013V15.9292H67.6343V15.0152H66.1363V13.2442H64.9937V15.0152H63.9146V15.9292H64.9937V20.0806C64.9937 20.7323 65.1503 21.1999 65.4634 21.4834C65.7808 21.767 66.2908 21.9087 66.9932 21.9087ZM71.9888 21.9785C72.3908 21.9785 72.7527 21.9278 73.0743 21.8262C73.4001 21.7204 73.6815 21.5808 73.9185 21.4073C74.1555 21.2295 74.348 21.0327 74.4962 20.8169C74.6485 20.5969 74.7543 20.3705 74.8135 20.1377L74.8262 20.0869H73.7217L73.6964 20.1441C73.6371 20.2795 73.5334 20.4128 73.3853 20.544C73.2372 20.6752 73.0489 20.7831 72.8204 20.8677C72.5919 20.9523 72.3231 20.9947 72.0142 20.9947C71.5995 20.9947 71.2398 20.9037 70.9351 20.7217C70.6304 20.5355 70.3956 20.271 70.2305 19.9283C70.0655 19.5812 69.983 19.1644 69.983 18.6778V18.2398C69.983 17.7277 70.0676 17.2961 70.2369 16.9449C70.4061 16.5936 70.6347 16.3291 70.9224 16.1514C71.2144 15.9694 71.5445 15.8784 71.9127 15.8784C72.2808 15.8784 72.6067 15.9652 72.8902 16.1387C73.1737 16.308 73.3959 16.5661 73.5567 16.9131C73.7175 17.2601 73.7979 17.7023 73.7979 18.2398V18.6778L74.3438 17.8716H69.4244V18.7539H74.9088V18.3223C74.9088 17.641 74.7881 17.0443 74.5469 16.5323C74.31 16.016 73.9672 15.614 73.5186 15.3262C73.0743 15.0384 72.5411 14.8946 71.919 14.8946C71.3012 14.8946 70.7616 15.0448 70.3004 15.3452C69.8391 15.6457 69.4815 16.0625 69.2276 16.5957C68.9779 17.1289 68.8531 17.7489 68.8531 18.4556V18.4619C68.8531 19.1771 68.9779 19.7992 69.2276 20.3282C69.4815 20.8529 69.8412 21.2591 70.3067 21.5469C70.7764 21.8347 71.3371 21.9785 71.9888 21.9785ZM78.9713 21.9785C79.4918 21.9785 79.9573 21.8918 80.3677 21.7183C80.7825 21.5448 81.1104 21.3036 81.3516 20.9947C81.5928 20.6815 81.7134 20.3218 81.7134 19.9156V19.9029C81.7134 19.412 81.5547 19.0205 81.2374 18.7285C80.9242 18.4366 80.446 18.2123 79.8028 18.0557L78.7491 17.8018C78.3471 17.7045 78.0551 17.5796 77.8731 17.4273C77.6911 17.2749 77.6002 17.0824 77.6002 16.8496V16.8369C77.6002 16.6338 77.6615 16.4561 77.7842 16.3037C77.907 16.1514 78.0741 16.0329 78.2857 15.9483C78.4973 15.8594 78.7385 15.815 79.0093 15.815C79.4241 15.815 79.7605 15.8996 80.0186 16.0689C80.2768 16.2381 80.4418 16.4582 80.5137 16.729H81.5992C81.5484 16.3566 81.4088 16.0329 81.1802 15.7578C80.956 15.4828 80.6576 15.2712 80.2852 15.1231C79.9171 14.9707 79.4939 14.8946 79.0157 14.8946C78.5333 14.8946 78.0995 14.9813 77.7144 15.1548C77.3293 15.3283 77.0246 15.5653 76.8004 15.8658C76.5803 16.1662 76.4703 16.5069 76.4703 16.8877V16.8941C76.4703 17.385 76.6205 17.7785 76.921 18.0747C77.2214 18.3667 77.6911 18.5889 78.3301 18.7412L79.3902 18.9951C79.8134 19.0967 80.1181 19.23 80.3043 19.3951C80.4905 19.5559 80.5836 19.7526 80.5836 19.9854V19.9981C80.5836 20.2054 80.5158 20.3895 80.3804 20.5503C80.245 20.7069 80.0588 20.8317 79.8218 20.9248C79.5891 21.0137 79.3183 21.0581 79.0093 21.0581C78.5735 21.0581 78.2201 20.9714 77.9493 20.7979C77.6784 20.6244 77.4965 20.3959 77.4034 20.1123H76.2735C76.3158 20.489 76.4533 20.8169 76.6861 21.0962C76.9231 21.3755 77.2362 21.5935 77.6255 21.75C78.0149 21.9024 78.4634 21.9785 78.9713 21.9785Z" fill="white"/>
</svg>
