<svg width="102" height="34" viewBox="0 0 102 34" fill="none" xmlns="http://www.w3.org/2000/svg">
<rect x="0.892151" y="0.357971" width="101" height="33" rx="16.5" fill="#27AE60"/>
<path d="M26.356 22.0738C27.1389 22.0738 27.8202 21.9172 28.4 21.604C28.9839 21.2909 29.4367 20.8529 29.7584 20.2901C30.0842 19.7272 30.2471 19.0692 30.2471 18.3159V17.1988H26.5338V18.2017H29.1046V18.4239C29.1046 18.9401 28.9903 19.3929 28.7618 19.7823C28.5333 20.1716 28.2116 20.4763 27.7969 20.6963C27.3865 20.9121 26.9083 21.0201 26.3624 21.0201C25.7488 21.0201 25.2177 20.8698 24.7691 20.5694C24.3248 20.2647 23.9799 19.833 23.7344 19.2744C23.4932 18.7116 23.3726 18.0472 23.3726 17.2813V17.2686C23.3726 16.5111 23.4953 15.8531 23.7408 15.2945C23.9862 14.7359 24.3311 14.3042 24.7755 13.9995C25.224 13.6906 25.7509 13.5362 26.356 13.5362C27.0373 13.5362 27.6044 13.6927 28.0572 14.0059C28.51 14.319 28.8295 14.7718 29.0157 15.3643L29.0347 15.4278H30.19L30.1773 15.3643C30.0588 14.7845 29.8261 14.2788 29.4791 13.8472C29.1363 13.4156 28.6983 13.0812 28.1651 12.8443C27.6361 12.6031 27.0331 12.4825 26.356 12.4825C25.5224 12.4825 24.7924 12.6813 24.1661 13.0791C23.544 13.4727 23.0616 14.0292 22.7188 14.7486C22.376 15.4637 22.2047 16.3037 22.2047 17.2686V17.2813C22.2047 18.2546 22.3739 19.1009 22.7125 19.8203C23.0552 20.5397 23.5377 21.0962 24.1597 21.4898C24.7818 21.8791 25.5139 22.0738 26.356 22.0738ZM32.1324 21.8579H33.2369V17.6177C33.2369 17.2834 33.313 16.9914 33.4654 16.7417C33.622 16.4921 33.8357 16.2974 34.1065 16.1577C34.3773 16.0181 34.6884 15.9483 35.0396 15.9483C35.1623 15.9483 35.2766 15.9546 35.3824 15.9673C35.4924 15.9758 35.6046 15.9906 35.7188 16.0117V14.939C35.6638 14.9305 35.5834 14.9221 35.4776 14.9136C35.376 14.9009 35.2724 14.8946 35.1666 14.8946C34.7053 14.8946 34.3181 14.994 34.0049 15.1929C33.6918 15.3918 33.4696 15.6711 33.3384 16.0308H33.2369V15.0152H32.1324V21.8579ZM39.7051 21.9785C40.3568 21.9785 40.9175 21.8368 41.3873 21.5533C41.857 21.2655 42.2188 20.8571 42.4727 20.3282C42.7309 19.7992 42.8599 19.1708 42.8599 18.4429V18.4302C42.8599 17.6981 42.7309 17.0676 42.4727 16.5386C42.2188 16.0096 41.857 15.6034 41.3873 15.3199C40.9175 15.0363 40.3568 14.8946 39.7051 14.8946C39.0577 14.8946 38.497 15.0363 38.023 15.3199C37.5533 15.6034 37.1894 16.0096 36.9312 16.5386C36.6773 17.0676 36.5504 17.6981 36.5504 18.4302V18.4429C36.5504 19.1708 36.6773 19.7992 36.9312 20.3282C37.1894 20.8571 37.5533 21.2655 38.023 21.5533C38.497 21.8368 39.0577 21.9785 39.7051 21.9785ZM39.7051 21.001C39.2735 21.001 38.9075 20.8994 38.607 20.6963C38.3065 20.4932 38.0759 20.2012 37.9151 19.8203C37.7585 19.4395 37.6802 18.9803 37.6802 18.4429V18.4302C37.6802 17.8885 37.7585 17.4273 37.9151 17.0464C38.0759 16.6656 38.3065 16.3757 38.607 16.1768C38.9075 15.9737 39.2735 15.8721 39.7051 15.8721C40.1368 15.8721 40.5028 15.9737 40.8033 16.1768C41.1037 16.3757 41.3323 16.6656 41.4888 17.0464C41.6496 17.4273 41.73 17.8885 41.73 18.4302V18.4429C41.73 18.9803 41.6496 19.4395 41.4888 19.8203C41.3323 20.2012 41.1037 20.4932 40.8033 20.6963C40.5028 20.8994 40.1368 21.001 39.7051 21.001ZM47.3731 21.9785C47.9232 21.9785 48.393 21.8876 48.7823 21.7056C49.1716 21.5236 49.4848 21.274 49.7217 20.9566C49.9587 20.635 50.1238 20.2689 50.2169 19.8584L50.2296 19.7886L49.1378 19.795L49.1251 19.833C48.9981 20.2139 48.7886 20.5038 48.4966 20.7027C48.2047 20.9016 47.828 21.001 47.3668 21.001C46.9605 21.001 46.6072 20.8952 46.3067 20.6836C46.0062 20.472 45.7735 20.1737 45.6085 19.7886C45.4434 19.3993 45.3609 18.9423 45.3609 18.4175V18.4048C45.3609 17.8885 45.4413 17.4421 45.6021 17.0655C45.7672 16.6846 45.9999 16.3905 46.3004 16.1831C46.6008 15.9758 46.9563 15.8721 47.3668 15.8721C47.8576 15.8721 48.2533 15.9906 48.5538 16.2276C48.8542 16.4645 49.0468 16.7523 49.1314 17.0909L49.1378 17.1099H50.2359L50.2296 17.0718C50.1618 16.6656 50.0074 16.2995 49.7662 15.9737C49.525 15.6436 49.2033 15.3812 48.8013 15.1866C48.3993 14.9919 47.9211 14.8946 47.3668 14.8946C46.7278 14.8946 46.1734 15.0406 45.7037 15.3326C45.2339 15.6203 44.87 16.0266 44.6119 16.5513C44.358 17.076 44.231 17.6939 44.231 18.4048V18.4175C44.231 19.1411 44.3601 19.7696 44.6182 20.3028C44.8764 20.836 45.2403 21.2486 45.71 21.5406C46.1797 21.8326 46.7341 21.9785 47.3731 21.9785ZM54.6412 21.9785C55.0432 21.9785 55.405 21.9278 55.7266 21.8262C56.0525 21.7204 56.3339 21.5808 56.5709 21.4073C56.8078 21.2295 57.0004 21.0327 57.1485 20.8169C57.3008 20.5969 57.4066 20.3705 57.4659 20.1377L57.4786 20.0869H56.3741L56.3487 20.1441C56.2894 20.2795 56.1858 20.4128 56.0377 20.544C55.8895 20.6752 55.7012 20.7831 55.4727 20.8677C55.2442 20.9523 54.9755 20.9947 54.6666 20.9947C54.2519 20.9947 53.8922 20.9037 53.5875 20.7217C53.2828 20.5355 53.0479 20.271 52.8829 19.9283C52.7178 19.5812 52.6353 19.1644 52.6353 18.6778V18.2398C52.6353 17.7277 52.72 17.2961 52.8892 16.9449C53.0585 16.5936 53.287 16.3291 53.5748 16.1514C53.8668 15.9694 54.1968 15.8784 54.565 15.8784C54.9332 15.8784 55.259 15.9652 55.5425 16.1387C55.8261 16.308 56.0482 16.5661 56.209 16.9131C56.3699 17.2601 56.4503 17.7023 56.4503 18.2398V18.6778L56.9962 17.8716H52.0767V18.7539H57.5611V18.3223C57.5611 17.641 57.4405 17.0443 57.1993 16.5323C56.9623 16.016 56.6195 15.614 56.171 15.3262C55.7266 15.0384 55.1934 14.8946 54.5714 14.8946C53.9535 14.8946 53.414 15.0448 52.9527 15.3452C52.4914 15.6457 52.1339 16.0625 51.8799 16.5957C51.6303 17.1289 51.5054 17.7489 51.5054 18.4556V18.4619C51.5054 19.1771 51.6303 19.7992 51.8799 20.3282C52.1339 20.8529 52.4936 21.2591 52.959 21.5469C53.4288 21.8347 53.9895 21.9785 54.6412 21.9785ZM59.275 21.8579H60.3795V17.6177C60.3795 17.2834 60.4556 16.9914 60.608 16.7417C60.7645 16.4921 60.9783 16.2974 61.2491 16.1577C61.5199 16.0181 61.831 15.9483 62.1822 15.9483C62.3049 15.9483 62.4192 15.9546 62.525 15.9673C62.635 15.9758 62.7471 15.9906 62.8614 16.0117V14.939C62.8064 14.9305 62.726 14.9221 62.6202 14.9136C62.5186 14.9009 62.4149 14.8946 62.3091 14.8946C61.8479 14.8946 61.4607 14.994 61.1475 15.1929C60.8344 15.3918 60.6122 15.6711 60.481 16.0308H60.3795V15.0152H59.275V21.8579ZM64.2515 21.8579H65.356V15.0152H64.2515V21.8579ZM64.8101 13.6949C65.0217 13.6949 65.2016 13.6208 65.3497 13.4727C65.4978 13.3203 65.5718 13.1405 65.5718 12.9331C65.5718 12.7215 65.4978 12.5417 65.3497 12.3936C65.2016 12.2455 65.0217 12.1714 64.8101 12.1714C64.6028 12.1714 64.4229 12.2455 64.2706 12.3936C64.1225 12.5417 64.0484 12.7215 64.0484 12.9331C64.0484 13.1405 64.1225 13.3203 64.2706 13.4727C64.4229 13.6208 64.6028 13.6949 64.8101 13.6949ZM70.231 21.9785C70.633 21.9785 70.9949 21.9278 71.3165 21.8262C71.6423 21.7204 71.9237 21.5808 72.1607 21.4073C72.3977 21.2295 72.5902 21.0327 72.7383 20.8169C72.8907 20.5969 72.9965 20.3705 73.0557 20.1377L73.0684 20.0869H71.9639L71.9385 20.1441C71.8793 20.2795 71.7756 20.4128 71.6275 20.544C71.4794 20.6752 71.2911 20.7831 71.0626 20.8677C70.834 20.9523 70.5653 20.9947 70.2564 20.9947C69.8417 20.9947 69.482 20.9037 69.1773 20.7217C68.8726 20.5355 68.6378 20.271 68.4727 19.9283C68.3077 19.5812 68.2252 19.1644 68.2252 18.6778V18.2398C68.2252 17.7277 68.3098 17.2961 68.4791 16.9449C68.6483 16.5936 68.8769 16.3291 69.1646 16.1514C69.4566 15.9694 69.7867 15.8784 70.1548 15.8784C70.523 15.8784 70.8489 15.9652 71.1324 16.1387C71.4159 16.308 71.6381 16.5661 71.7989 16.9131C71.9597 17.2601 72.0401 17.7023 72.0401 18.2398V18.6778L72.586 17.8716H67.6666V18.7539H73.1509V18.3223C73.1509 17.641 73.0303 17.0443 72.7891 16.5323C72.5521 16.016 72.2094 15.614 71.7608 15.3262C71.3165 15.0384 70.7833 14.8946 70.1612 14.8946C69.5434 14.8946 69.0038 15.0448 68.5425 15.3452C68.0813 15.6457 67.7237 16.0625 67.4698 16.5957C67.2201 17.1289 67.0953 17.7489 67.0953 18.4556V18.4619C67.0953 19.1771 67.2201 19.7992 67.4698 20.3282C67.7237 20.8529 68.0834 21.2591 68.5489 21.5469C69.0186 21.8347 69.5793 21.9785 70.231 21.9785ZM77.2134 21.9785C77.7339 21.9785 78.1994 21.8918 78.6099 21.7183C79.0246 21.5448 79.3526 21.3036 79.5938 20.9947C79.835 20.6815 79.9556 20.3218 79.9556 19.9156V19.9029C79.9556 19.412 79.7969 19.0205 79.4796 18.7285C79.1664 18.4366 78.6882 18.2123 78.045 18.0557L76.9913 17.8018C76.5893 17.7045 76.2973 17.5796 76.1153 17.4273C75.9333 17.2749 75.8423 17.0824 75.8423 16.8496V16.8369C75.8423 16.6338 75.9037 16.4561 76.0264 16.3037C76.1491 16.1514 76.3163 16.0329 76.5279 15.9483C76.7395 15.8594 76.9807 15.815 77.2515 15.815C77.6662 15.815 78.0027 15.8996 78.2608 16.0689C78.5189 16.2381 78.684 16.4582 78.7559 16.729H79.8414C79.7906 16.3566 79.6509 16.0329 79.4224 15.7578C79.1981 15.4828 78.8998 15.2712 78.5274 15.1231C78.1592 14.9707 77.7361 14.8946 77.2579 14.8946C76.7755 14.8946 76.3417 14.9813 75.9566 15.1548C75.5715 15.3283 75.2668 15.5653 75.0425 15.8658C74.8225 16.1662 74.7125 16.5069 74.7125 16.8877V16.8941C74.7125 17.385 74.8627 17.7785 75.1631 18.0747C75.4636 18.3667 75.9333 18.5889 76.5723 18.7412L77.6324 18.9951C78.0556 19.0967 78.3602 19.23 78.5464 19.3951C78.7326 19.5559 78.8257 19.7526 78.8257 19.9854V19.9981C78.8257 20.2054 78.758 20.3895 78.6226 20.5503C78.4872 20.7069 78.301 20.8317 78.064 20.9248C77.8313 21.0137 77.5604 21.0581 77.2515 21.0581C76.8157 21.0581 76.4623 20.9714 76.1915 20.7979C75.9206 20.6244 75.7387 20.3959 75.6456 20.1123H74.5157C74.558 20.489 74.6955 20.8169 74.9283 21.0962C75.1653 21.3755 75.4784 21.5935 75.8677 21.75C76.2571 21.9024 76.7056 21.9785 77.2134 21.9785Z" fill="white"/>
</svg>
