<svg width="102" height="34" viewBox="0 0 102 34" fill="none" xmlns="http://www.w3.org/2000/svg">
<rect x="0.89209" y="0.357971" width="101" height="33" rx="16.5" fill="#9B51E0"/>
<path d="M33.4211 22.0738C34.1025 22.0738 34.697 21.9616 35.2048 21.7373C35.7126 21.5088 36.1062 21.1872 36.3855 20.7725C36.6648 20.3578 36.8044 19.8648 36.8044 19.2935V19.2871C36.8044 18.627 36.5992 18.0959 36.1887 17.6939C35.7782 17.2919 35.0948 16.9851 34.1384 16.7735L33.1228 16.545C32.5007 16.4095 32.0543 16.217 31.7834 15.9673C31.5126 15.7176 31.3772 15.4108 31.3772 15.0469V15.0406C31.3772 14.7189 31.4661 14.4481 31.6438 14.2281C31.8258 14.0038 32.0691 13.8324 32.3738 13.7139C32.6785 13.5954 33.0212 13.5362 33.4021 13.5362C33.7999 13.5319 34.1469 13.5912 34.4431 13.7139C34.7393 13.8366 34.9763 14.0038 35.1541 14.2154C35.3318 14.4227 35.4418 14.6618 35.4841 14.9326L35.4968 15.0152H36.6394L36.6331 14.9263C36.6034 14.4693 36.449 14.0567 36.1697 13.6885C35.8946 13.3203 35.5222 13.0284 35.0525 12.8125C34.5828 12.5925 34.0432 12.4825 33.4338 12.4825C32.8033 12.4825 32.2447 12.5925 31.7581 12.8125C31.2756 13.0326 30.8969 13.3373 30.6218 13.7266C30.351 14.1159 30.2135 14.5645 30.2092 15.0723V15.0786C30.2092 15.743 30.4166 16.2889 30.8313 16.7163C31.2502 17.1395 31.9189 17.4527 32.8372 17.6558L33.8528 17.878C34.4833 18.0176 34.9382 18.2186 35.2175 18.481C35.4968 18.7391 35.6365 19.0586 35.6365 19.4395V19.4458C35.6365 19.7548 35.5434 20.0277 35.3572 20.2647C35.171 20.5017 34.915 20.6879 34.5891 20.8233C34.2675 20.9545 33.8993 21.0201 33.4846 21.0201C33.0445 21.0201 32.651 20.9587 32.304 20.836C31.9612 20.7132 31.6861 20.5419 31.4788 20.3218C31.2756 20.0975 31.1593 19.833 31.1296 19.5284L31.1233 19.4585H29.9807L29.9871 19.5284C30.0336 20.0235 30.2008 20.4636 30.4885 20.8487C30.7805 21.2295 31.1741 21.53 31.6692 21.75C32.1685 21.9659 32.7525 22.0738 33.4211 22.0738ZM38.5691 24.1431H39.6736V20.7788H39.7751C39.9021 21.0243 40.0714 21.2359 40.283 21.4136C40.4988 21.5913 40.7442 21.731 41.0193 21.8326C41.2986 21.9299 41.5948 21.9785 41.908 21.9785C42.4877 21.9785 42.9913 21.8326 43.4187 21.5406C43.8503 21.2486 44.1847 20.8381 44.4216 20.3091C44.6586 19.7801 44.7771 19.1581 44.7771 18.4429V18.4302C44.7771 17.7193 44.6586 17.0993 44.4216 16.5703C44.1847 16.0414 43.8503 15.6309 43.4187 15.3389C42.9913 15.0427 42.4877 14.8946 41.908 14.8946C41.5906 14.8946 41.2965 14.9432 41.0256 15.0406C40.7548 15.1379 40.5136 15.2775 40.302 15.4595C40.0904 15.6372 39.9148 15.8531 39.7751 16.107H39.6736V15.0152H38.5691V24.1431ZM41.6541 21.001C41.2393 21.001 40.8818 20.8973 40.5813 20.69C40.2808 20.4826 40.0502 20.1885 39.8894 19.8076C39.7286 19.4226 39.6482 18.9676 39.6482 18.4429V18.4302C39.6482 17.9012 39.7286 17.4463 39.8894 17.0655C40.0502 16.6846 40.2808 16.3905 40.5813 16.1831C40.8818 15.9758 41.2393 15.8721 41.6541 15.8721C42.073 15.8721 42.4306 15.9758 42.7268 16.1831C43.023 16.3863 43.2494 16.6783 43.406 17.0591C43.5668 17.44 43.6472 17.897 43.6472 18.4302V18.4429C43.6472 18.9719 43.5668 19.4289 43.406 19.814C43.2494 20.1949 43.023 20.489 42.7268 20.6963C42.4306 20.8994 42.073 21.001 41.6541 21.001ZM49.3157 21.9785C49.9674 21.9785 50.5281 21.8368 50.9978 21.5533C51.4675 21.2655 51.8293 20.8571 52.0833 20.3282C52.3414 19.7992 52.4705 19.1708 52.4705 18.4429V18.4302C52.4705 17.6981 52.3414 17.0676 52.0833 16.5386C51.8293 16.0096 51.4675 15.6034 50.9978 15.3199C50.5281 15.0363 49.9674 14.8946 49.3157 14.8946C48.6682 14.8946 48.1075 15.0363 47.6335 15.3199C47.1638 15.6034 46.7999 16.0096 46.5417 16.5386C46.2878 17.0676 46.1609 17.6981 46.1609 18.4302V18.4429C46.1609 19.1708 46.2878 19.7992 46.5417 20.3282C46.7999 20.8571 47.1638 21.2655 47.6335 21.5533C48.1075 21.8368 48.6682 21.9785 49.3157 21.9785ZM49.3157 21.001C48.884 21.001 48.518 20.8994 48.2175 20.6963C47.9171 20.4932 47.6864 20.2012 47.5256 19.8203C47.3691 19.4395 47.2908 18.9803 47.2908 18.4429V18.4302C47.2908 17.8885 47.3691 17.4273 47.5256 17.0464C47.6864 16.6656 47.9171 16.3757 48.2175 16.1768C48.518 15.9737 48.884 15.8721 49.3157 15.8721C49.7473 15.8721 50.1134 15.9737 50.4138 16.1768C50.7143 16.3757 50.9428 16.6656 51.0994 17.0464C51.2602 17.4273 51.3406 17.8885 51.3406 18.4302V18.4429C51.3406 18.9803 51.2602 19.4395 51.0994 19.8203C50.9428 20.2012 50.7143 20.4932 50.4138 20.6963C50.1134 20.8994 49.7473 21.001 49.3157 21.001ZM54.1843 21.8579H55.2888V17.6177C55.2888 17.2834 55.365 16.9914 55.5173 16.7417C55.6739 16.4921 55.8876 16.2974 56.1584 16.1577C56.4293 16.0181 56.7403 15.9483 57.0916 15.9483C57.2143 15.9483 57.3285 15.9546 57.4343 15.9673C57.5444 15.9758 57.6565 15.9906 57.7708 16.0117V14.939C57.7157 14.9305 57.6353 14.9221 57.5295 14.9136C57.428 14.9009 57.3243 14.8946 57.2185 14.8946C56.7572 14.8946 56.37 14.994 56.0569 15.1929C55.7437 15.3918 55.5216 15.6711 55.3904 16.0308H55.2888V15.0152H54.1843V21.8579ZM61.6936 21.9087C61.8036 21.9087 61.9115 21.9024 62.0173 21.8897C62.1231 21.877 62.2289 21.8622 62.3347 21.8452V20.9058C62.2332 20.9143 62.1464 20.9206 62.0745 20.9248C62.0068 20.9291 61.9242 20.9312 61.8269 20.9312C61.4714 20.9312 61.2175 20.8444 61.0652 20.6709C60.9128 20.4932 60.8367 20.2033 60.8367 19.8013V15.9292H62.3347V15.0152H60.8367V13.2442H59.6941V15.0152H58.615V15.9292H59.6941V20.0806C59.6941 20.7323 59.8507 21.1999 60.1638 21.4834C60.4812 21.767 60.9911 21.9087 61.6936 21.9087ZM66.2068 21.9785C66.7273 21.9785 67.1928 21.8918 67.6033 21.7183C68.018 21.5448 68.3459 21.3036 68.5872 20.9947C68.8284 20.6815 68.949 20.3218 68.949 19.9156V19.9029C68.949 19.412 68.7903 19.0205 68.4729 18.7285C68.1597 18.4366 67.6816 18.2123 67.0383 18.0557L65.9846 17.8018C65.5826 17.7045 65.2906 17.5796 65.1086 17.4273C64.9267 17.2749 64.8357 17.0824 64.8357 16.8496V16.8369C64.8357 16.6338 64.8971 16.4561 65.0198 16.3037C65.1425 16.1514 65.3097 16.0329 65.5212 15.9483C65.7328 15.8594 65.974 15.815 66.2449 15.815C66.6596 15.815 66.996 15.8996 67.2542 16.0689C67.5123 16.2381 67.6773 16.4582 67.7493 16.729H68.8347C68.7839 16.3566 68.6443 16.0329 68.4158 15.7578C68.1915 15.4828 67.8931 15.2712 67.5208 15.1231C67.1526 14.9707 66.7294 14.8946 66.2512 14.8946C65.7688 14.8946 65.335 14.9813 64.95 15.1548C64.5649 15.3283 64.2602 15.5653 64.0359 15.8658C63.8158 16.1662 63.7058 16.5069 63.7058 16.8877V16.8941C63.7058 17.385 63.856 17.7785 64.1565 18.0747C64.4569 18.3667 64.9267 18.5889 65.5657 18.7412L66.6257 18.9951C67.0489 19.0967 67.3536 19.23 67.5398 19.3951C67.726 19.5559 67.8191 19.7526 67.8191 19.9854V19.9981C67.8191 20.2054 67.7514 20.3895 67.616 20.5503C67.4806 20.7069 67.2944 20.8317 67.0574 20.9248C66.8246 21.0137 66.5538 21.0581 66.2449 21.0581C65.809 21.0581 65.4556 20.9714 65.1848 20.7979C64.914 20.6244 64.732 20.3959 64.6389 20.1123H63.509C63.5514 20.489 63.6889 20.8169 63.9216 21.0962C64.1586 21.3755 64.4718 21.5935 64.8611 21.75C65.2504 21.9024 65.699 21.9785 66.2068 21.9785Z" fill="white"/>
</svg>
