<svg width="102" height="34" viewBox="0 0 102 34" fill="none" xmlns="http://www.w3.org/2000/svg">
<rect x="0.89209" y="0.357971" width="101" height="33" rx="16.5" fill="#F2994A"/>
<path d="M37.5625 22.0738C38.2438 22.0738 38.8384 21.9616 39.3462 21.7374C39.854 21.5089 40.2476 21.1872 40.5269 20.7725C40.8062 20.3578 40.9458 19.8648 40.9458 19.2935V19.2872C40.9458 18.627 40.7406 18.0959 40.3301 17.6939C39.9196 17.2919 39.2362 16.9851 38.2798 16.7735L37.2642 16.545C36.6421 16.4096 36.1956 16.217 35.9248 15.9673C35.654 15.7177 35.5186 15.4109 35.5186 15.0469V15.0406C35.5186 14.719 35.6074 14.4481 35.7852 14.2281C35.9671 14.0038 36.2104 13.8324 36.5151 13.7139C36.8198 13.5954 37.1626 13.5362 37.5435 13.5362C37.9412 13.532 38.2882 13.5912 38.5845 13.7139C38.8807 13.8366 39.1177 14.0038 39.2954 14.2154C39.4731 14.4227 39.5832 14.6618 39.6255 14.9327L39.6382 15.0152H40.7808L40.7744 14.9263C40.7448 14.4693 40.5903 14.0567 40.311 13.6885C40.036 13.3204 39.6636 13.0284 39.1938 12.8126C38.7241 12.5925 38.1846 12.4825 37.5752 12.4825C36.9447 12.4825 36.3861 12.5925 35.8994 12.8126C35.417 13.0326 35.0382 13.3373 34.7632 13.7266C34.4924 14.1159 34.3548 14.5645 34.3506 15.0723V15.0787C34.3506 15.7431 34.5579 16.289 34.9727 16.7164C35.3916 17.1395 36.0602 17.4527 36.9785 17.6558L37.9941 17.878C38.6247 18.0176 39.0796 18.2186 39.3589 18.481C39.6382 18.7392 39.7778 19.0587 39.7778 19.4395V19.4459C39.7778 19.7548 39.6847 20.0277 39.4985 20.2647C39.3123 20.5017 39.0563 20.6879 38.7305 20.8233C38.4089 20.9545 38.0407 21.0201 37.626 21.0201C37.1859 21.0201 36.7923 20.9587 36.4453 20.836C36.1025 20.7133 35.8275 20.5419 35.6201 20.3218C35.417 20.0976 35.3006 19.8331 35.271 19.5284L35.2646 19.4586H34.1221L34.1284 19.5284C34.175 20.0235 34.3421 20.4636 34.6299 20.8487C34.9219 21.2296 35.3154 21.53 35.8105 21.7501C36.3099 21.9659 36.8939 22.0738 37.5625 22.0738ZM45.1416 21.9088C45.2516 21.9088 45.3595 21.9024 45.4653 21.8897C45.5711 21.877 45.6769 21.8622 45.7827 21.8453V20.9058C45.6812 20.9143 45.5944 20.9206 45.5225 20.9249C45.4548 20.9291 45.3722 20.9312 45.2749 20.9312C44.9194 20.9312 44.6655 20.8445 44.5132 20.671C44.3608 20.4932 44.2847 20.2033 44.2847 19.8013V15.9293H45.7827V15.0152H44.2847V13.2442H43.1421V15.0152H42.063V15.9293H43.1421V20.0806C43.1421 20.7323 43.2987 21.1999 43.6118 21.4835C43.9292 21.767 44.4391 21.9088 45.1416 21.9088ZM49.7246 21.9786C50.2282 21.9786 50.6493 21.8791 50.9878 21.6802C51.3306 21.4813 51.5866 21.1999 51.7559 20.836H51.8574V21.858H52.9619V15.0152H51.8574V19.065C51.8574 19.4628 51.7876 19.8077 51.6479 20.0997C51.5083 20.3874 51.3009 20.6096 51.0259 20.7662C50.7508 20.9227 50.4123 21.001 50.0103 21.001C49.4644 21.001 49.0708 20.8508 48.8296 20.5504C48.5926 20.2499 48.4741 19.7929 48.4741 19.1793V15.0152H47.3696V19.4459C47.3696 19.9833 47.4564 20.4424 47.6299 20.8233C47.8076 21.1999 48.0721 21.4877 48.4233 21.6866C48.7746 21.8812 49.2083 21.9786 49.7246 21.9786ZM57.5513 21.9786C58.0295 21.9786 58.4526 21.8728 58.8208 21.6612C59.189 21.4454 59.4767 21.147 59.6841 20.7662H59.7856V21.858H60.8901V12.2984H59.7856V16.0943H59.6841C59.4979 15.7304 59.2122 15.4405 58.8271 15.2247C58.4463 15.0046 58.021 14.8946 57.5513 14.8946C56.9715 14.8946 56.4658 15.0406 56.0342 15.3326C55.6068 15.6246 55.2746 16.0351 55.0376 16.564C54.8006 17.093 54.6821 17.7151 54.6821 18.4302V18.4429C54.6821 19.1539 54.8006 19.7759 55.0376 20.3091C55.2746 20.8381 55.6089 21.2486 56.0405 21.5406C56.4722 21.8326 56.9757 21.9786 57.5513 21.9786ZM57.8052 21.001C57.3905 21.001 57.0329 20.8995 56.7324 20.6964C56.4362 20.489 56.2077 20.1949 56.0469 19.814C55.8903 19.4289 55.812 18.9719 55.812 18.4429V18.4302C55.812 17.897 55.8903 17.44 56.0469 17.0591C56.2077 16.6783 56.4362 16.3863 56.7324 16.1832C57.0329 15.9758 57.3905 15.8721 57.8052 15.8721C58.2199 15.8721 58.5775 15.9758 58.8779 16.1832C59.1784 16.3905 59.409 16.6846 59.5698 17.0655C59.7306 17.4464 59.811 17.9013 59.811 18.4302V18.4429C59.811 18.9677 59.7306 19.4226 59.5698 19.8077C59.409 20.1885 59.1784 20.4826 58.8779 20.69C58.5775 20.8974 58.2199 21.001 57.8052 21.001ZM63.5942 24.2574C64.0005 24.2574 64.3411 24.1981 64.6162 24.0797C64.8955 23.9654 65.1367 23.7644 65.3398 23.4766C65.5472 23.1889 65.7461 22.789 65.9365 22.2769L68.6089 15.0152H67.4473L65.3462 21.3375L65.7842 20.6456H65.2637L65.7017 21.3375L63.5942 15.0152H62.4136L64.9463 21.8643L64.8193 22.2706C64.6966 22.6641 64.5337 22.9413 64.3306 23.1021C64.1317 23.2629 63.8757 23.3433 63.5625 23.3433C63.4863 23.3433 63.408 23.3412 63.3276 23.337C63.2472 23.3327 63.1732 23.3243 63.1055 23.3116V24.2193C63.1816 24.232 63.2642 24.2405 63.353 24.2447C63.4419 24.2532 63.5223 24.2574 63.5942 24.2574Z" fill="white"/>
</svg>
