<svg width="102" height="34" viewBox="0 0 102 34" fill="none" xmlns="http://www.w3.org/2000/svg">
<rect x="0.89209" y="0.357971" width="101" height="33" rx="16.5" fill="#2F80ED"/>
<path d="M37.0613 20.767H38.1404L40.2478 13.537H40.324L42.4314 20.767H43.5105L46.0051 11.6073H44.8118L42.99 19.0531H42.9138L40.8635 11.6073H39.7083L37.658 19.0531H37.5818L35.76 11.6073H34.5667L37.0613 20.767ZM49.782 20.8876C50.4337 20.8876 50.9944 20.7458 51.4641 20.4623C51.9338 20.1745 52.2957 19.7662 52.5496 19.2372C52.8077 18.7082 52.9368 18.0798 52.9368 17.3519V17.3392C52.9368 16.6071 52.8077 15.9766 52.5496 15.4476C52.2957 14.9187 51.9338 14.5124 51.4641 14.2289C50.9944 13.9454 50.4337 13.8036 49.782 13.8036C49.1345 13.8036 48.5738 13.9454 48.0999 14.2289C47.6301 14.5124 47.2662 14.9187 47.0081 15.4476C46.7542 15.9766 46.6272 16.6071 46.6272 17.3392V17.3519C46.6272 18.0798 46.7542 18.7082 47.0081 19.2372C47.2662 19.7662 47.6301 20.1745 48.0999 20.4623C48.5738 20.7458 49.1345 20.8876 49.782 20.8876ZM49.782 19.91C49.3503 19.91 48.9843 19.8085 48.6838 19.6053C48.3834 19.4022 48.1528 19.1102 47.9919 18.7294C47.8354 18.3485 47.7571 17.8894 47.7571 17.3519V17.3392C47.7571 16.7976 47.8354 16.3363 47.9919 15.9554C48.1528 15.5746 48.3834 15.2847 48.6838 15.0858C48.9843 14.8827 49.3503 14.7811 49.782 14.7811C50.2136 14.7811 50.5797 14.8827 50.8801 15.0858C51.1806 15.2847 51.4091 15.5746 51.5657 15.9554C51.7265 16.3363 51.8069 16.7976 51.8069 17.3392V17.3519C51.8069 17.8894 51.7265 18.3485 51.5657 18.7294C51.4091 19.1102 51.1806 19.4022 50.8801 19.6053C50.5797 19.8085 50.2136 19.91 49.782 19.91ZM54.6506 20.767H55.7551V16.5267C55.7551 16.1924 55.8313 15.9004 55.9836 15.6508C56.1402 15.4011 56.3539 15.2064 56.6248 15.0668C56.8956 14.9271 57.2066 14.8573 57.5579 14.8573C57.6806 14.8573 57.7948 14.8636 57.9006 14.8763C58.0107 14.8848 58.1228 14.8996 58.2371 14.9208V13.848C58.182 13.8396 58.1016 13.8311 57.9958 13.8226C57.8943 13.8099 57.7906 13.8036 57.6848 13.8036C57.2236 13.8036 56.8363 13.903 56.5232 14.1019C56.21 14.3008 55.9879 14.5801 55.8567 14.9398H55.7551V13.9242H54.6506V20.767ZM59.6653 20.767H60.7698V11.2074H59.6653V20.767ZM63.9753 20.767H65.3655L62.1155 16.7108L61.303 17.4154L63.9753 20.767ZM60.6301 18.3041L61.6521 17.3202L61.9187 17.0599L65.1687 13.9242H63.8293L60.8713 16.9139H60.5793L60.6301 18.3041Z" fill="white"/>
</svg>
